<svg xmlns="http://www.w3.org/2000/svg" viewBox="0 0 411.96 134.62" alt="Pallyy Logo"><path fill="#272f38" d="M409.21,39.17q-6.61.65-12.41.65-5.1,0-8.74-.33l-2.78-.27a2.49,2.49,0,0,0-2.76,2.47v.65a2.48,2.48,0,0,0,2.65,2.47l.49,0a9.75,9.75,0,0,1,3.35.59,5.68,5.68,0,0,1,2.67,2,5.74,5.74,0,0,1,1,3.53,17.5,17.5,0,0,1-2.07,7.17l-7,14.39a2.49,2.49,0,0,1-4.41.12l-8.94-16q-3-5.27-3-8.12a2.56,2.56,0,0,1,1.69-2.55,12.66,12.66,0,0,1,3.92-.65,2.5,2.5,0,0,0,2.39-2.49V41.61a2.5,2.5,0,0,0-2.74-2.47c-20.14,1.86-41.24,2.26-61.37.09a2.49,2.49,0,0,0-2.77,2.47v.64A2.48,2.48,0,0,0,311,44.82l.49,0a9.75,9.75,0,0,1,3.35.59,5.68,5.68,0,0,1,2.67,2,5.74,5.74,0,0,1,1,3.53,17.5,17.5,0,0,1-2.07,7.17l-7,14.39a2.49,2.49,0,0,1-4.41.12l-8.94-16q-3-5.27-3-8.12a2.56,2.56,0,0,1,1.69-2.55,12.66,12.66,0,0,1,3.92-.65,2.5,2.5,0,0,0,2.39-2.49V41.61a2.5,2.5,0,0,0-2.74-2.47,237.5,237.5,0,0,1-43.7,0,2.49,2.49,0,0,0-.82.07V12a2.49,2.49,0,0,0-1.38-2.23l-1.11-.56a2.46,2.46,0,0,0-1.94-.11,146.13,146.13,0,0,1-31.49,7.61,2.48,2.48,0,0,0-.58,4.77,53.45,53.45,0,0,1,5.54,2.39,6.59,6.59,0,0,1,2.73,2.31,6.18,6.18,0,0,1,.68,3.05V86q0,6-2.19,9.33a7,7,0,0,1-4,3l-.38.09a7.79,7.79,0,0,1-1.64.18c-.45,0-.85,0-1.21-.06l-.29,0a6,6,0,0,1-.66-.12,6,6,0,0,1-3.46-2.48q-2.25-2.81-2.25-9.45V12a2.49,2.49,0,0,0-1.38-2.23l-1.11-.56a2.46,2.46,0,0,0-1.94-.11,146.13,146.13,0,0,1-31.49,7.61,2.48,2.48,0,0,0-.58,4.77,53.45,53.45,0,0,1,5.54,2.39,6.59,6.59,0,0,1,2.73,2.31,6.18,6.18,0,0,1,.68,3.05V86q0,6-2.19,9.33a7,7,0,0,1-3.49,2.8,10,10,0,0,1-2.06.43c-.17,0-.32.06-.5.06a9.69,9.69,0,0,1-1.94-.17A8.92,8.92,0,0,1,169,96.86c-1.55-1.09-2.82-3.12-2.82-7.74V58a21.1,21.1,0,0,0-2.82-11.08,18,18,0,0,0-8.71-7.2q-5.89-2.52-14.9-2.52a68.18,68.18,0,0,0-18.54,2.64q-8.53,2.52-13.45,7.44A16.08,16.08,0,0,0,102.87,59a19.41,19.41,0,0,0,.19,2.68,2.51,2.51,0,0,0,3.42,2l18.39-7.46a2.44,2.44,0,0,0,1.45-3,8.82,8.82,0,0,1-.52-2.94,7.57,7.57,0,0,1,2-5.21,6.79,6.79,0,0,1,5.33-2.19q3.44,0,4.77,2t1.34,6.69v7.7a2.48,2.48,0,0,1-1.67,2.35L127.9,65q-8.32,2.9-12.05,4.18a27.38,27.38,0,0,0-3.73,1.39A25.8,25.8,0,0,0,103,75.43a13.24,13.24,0,0,0-4.06,6,34.13,34.13,0,0,0-1.16,7.85Q97.77,106,119,106q9.12,0,13.69-3a36.61,36.61,0,0,0,4.49-3.37,2.53,2.53,0,0,1,3.7.27,11.23,11.23,0,0,0,2.36,2.3,19.62,19.62,0,0,0,6.46,3.11,25.81,25.81,0,0,0,6.93,1c3.63,0,8.38-1.15,13-1.6l2.92-.28c1.32-.13,2.6-.25,3.88-.36l2.69-.23q9.08-.71,17-.72h43.65c6.64,0,13.82.38,21.54,1.09a1.76,1.76,0,0,0,1.65-1.91c0-.6,0-1.18,0-1.75a1.77,1.77,0,0,0-1.45-1.88,7.24,7.24,0,0,1-5.51-2.81q-2.25-2.81-2.25-9.45V45.36c.06,0,.11.05.17.06a7.6,7.6,0,0,1,4.11,2.34,57.62,57.62,0,0,1,6.31,9.54l27.79,50.36a7.9,7.9,0,0,1,1.13,3.32q0,4.09-9.72,4.09l-1.24-.12h-2a47,47,0,0,0-5.27.36,9.61,9.61,0,0,0-6.19,3.35,9.4,9.4,0,0,0-2.4,6.25,9.61,9.61,0,0,0,2.81,6.69,9.9,9.9,0,0,0,7.61,3,14.8,14.8,0,0,0,10.43-4.44,29.06,29.06,0,0,0,6.93-9.78l2.9-6,7-14.46,8.48-17.58L320,67c1.41-2.93,2.91-5.83,4.22-8.81a37.71,37.71,0,0,1,5.15-8.89c2.44-2.93,4.58-.37,5.95,2,3.62,6.28,6.77,12.83,10.29,19.17,3.71,6.68,7.51,13.31,11.22,20,3.16,5.73,6.43,11.42,9.49,17.2a7.9,7.9,0,0,1,1.13,3.32q0,4.09-9.72,4.09l-1.24-.12h-2a47,47,0,0,0-5.27.36,9.61,9.61,0,0,0-6.19,3.35,9.4,9.4,0,0,0-2.4,6.25,9.61,9.61,0,0,0,2.81,6.69,9.9,9.9,0,0,0,7.61,3,14.8,14.8,0,0,0,10.43-4.44,29.06,29.06,0,0,0,6.93-9.78L398,59a52.91,52.91,0,0,1,5.54-9.48A10.93,10.93,0,0,1,407.7,46a11.9,11.9,0,0,1,2.12-.55A2.52,2.52,0,0,0,412,43V41.64A2.5,2.5,0,0,0,409.21,39.17Zm-270,53.36a2.25,2.25,0,0,1-.52,1.53q-1.83,2-5.82,2a7.93,7.93,0,0,1-6-2.19q-2.07-2.19-2.07-7.17,0-7.05,2-11.4a15.84,15.84,0,0,1,9.36-9,14.39,14.39,0,0,1,2.93-.71c.08,0,.12.08.12.24Z"/><path fill="#272f38" d="M105.79,32a31.3,31.3,0,0,0-3-13.33A25.41,25.41,0,0,0,94,8.82Q88,4.76,78.41,2.59A95.87,95.87,0,0,0,65.88.72C60.62.24,55.38,0,50.1,0q-6,0-22.73.85Q14.56,1.44,2.28,2.44A2.49,2.49,0,0,0,0,4.93V7.27A2.47,2.47,0,0,0,2.55,9.75H3.2a11.52,11.52,0,0,1,7.39,2.49q3.13,2.49,3.13,9v67q0,6.54-3.48,8.82a16.41,16.41,0,0,1-7.91,2.2A2.49,2.49,0,0,0,0,101.72v2.35a2.5,2.5,0,0,0,2.65,2.48q24.62-1.48,31.23-1.48,14.34,0,31.31,1.4A2.5,2.5,0,0,0,67.9,104v-1.66a2.47,2.47,0,0,0-2.57-2.48q-.74,0-1.61,0A22.46,22.46,0,0,1,53.05,97.4q-4.71-2.49-4.71-8.89V66.71a2.48,2.48,0,0,1,2.86-2.46,88.81,88.81,0,0,0,13.69,1.22q12.78,0,22.08-4.27A31.44,31.44,0,0,0,101,49.3,32.08,32.08,0,0,0,105.79,32ZM66.91,52q-3.61,5.33-10.56,5.33a19.81,19.81,0,0,1-5.14-.57l-1.1-.31a2.47,2.47,0,0,1-1.77-2.38V10.29a2.52,2.52,0,0,1,2-2.45A22.92,22.92,0,0,1,55,7.25q15.52,0,15.52,28.58Q70.53,46.71,66.91,52Z"/></svg>